<svg width="48px" height="48px" viewBox="0 0 48 48" xmlns="http://www.w3.org/2000/svg">

    <!-- Logo -->

    <g id="logo">
        <defs>
            <clipPath id="clip20_1838">
                <rect width="50.000000" height="50.000000" fill="white" fill-opacity="0"/>
            </clipPath>
        </defs>
        <rect width="50.000000" height="50.000000" fill="#FFFFFF" fill-opacity="0"/>
        <g clip-path="url(#clip20_1838)">
            <path d="M18.31 42.06L27.26 6.68L31.43 7.87L22.48 43.31L18.31 42.06Z" fill="#7572D5" fill-opacity="1.000000" fill-rule="evenodd"/>
            <path d="M13.5 12.68L16.56 15.92L7.99 25L16.56 34.07L13.5 37.31L1.87 25L13.5 12.68Z" fill="#7572D5" fill-opacity="1.000000" fill-rule="evenodd"/>
            <path d="M36.49 12.68L33.43 15.92L42 25L33.43 34.07L36.49 37.31L48.12 25L36.49 12.68Z" fill="#7572D5" fill-opacity="1.000000" fill-rule="evenodd"/>
        </g>
    </g>

    <!-- Skills -->

    <g id="bootstrap">
        <path fill="#673ab7"
              d="M42,37c0,2.762-2.238,5-5,5H11c-2.761,0-5-2.238-5-5V11c0-2.762,2.239-5,5-5h26c2.762,0,5,2.238,5,5 V37z"/>
        <path fill="#fff"
              d="M33.03,25.6c-0.65-0.9-1.59-1.52-2.8-1.85c0,0,1.02-0.37,1.94-1.75c0.55-0.88,0.83-1.94,0.83-3.18 c0-2.15-0.78-3.8-2.34-4.93C29.1,12.76,27.34,12,24.35,12H15v24h10.43c2.83-0.02,4.96-0.63,6.41-1.8c1.44-1.19,2.16-2.95,2.16-5.3 C34,27.6,33.68,26.5,33.03,25.6z M21,16c0,0,4.17,0,4.25,0c1.52,0,2.75,1.23,2.75,2.75c0,1.52-1.23,2.75-2.75,2.75 c-0.08,0-4.25,0-4.25,0V16z M26,32h-5v-6h5c1.66,0,3,1.34,3,3C29,30.66,27.66,32,26,32z"/>
    </g>
    <g id="css">
        <path fill="#0277BD" d="M41,5H7l3,34l14,4l14-4L41,5L41,5z"/>
        <path fill="#039BE5" d="M24 8L24 39.9 35.2 36.7 37.7 8z"/>
        <path fill="#FFF"
              d="M33.1 13L24 13 24 17 28.9 17 28.6 21 24 21 24 25 28.4 25 28.1 29.5 24 30.9 24 35.1 31.9 32.5 32.6 21 32.6 21z"/>
        <path fill="#EEE"
              d="M24,13v4h-8.9l-0.3-4H24z M19.4,21l0.2,4H24v-4H19.4z M19.8,27h-4l0.3,5.5l7.9,2.6v-4.2l-4.1-1.4L19.8,27z"/>
    </g>
    <g id="git">
        <path fill="#F4511E"
              d="M42.2,22.1L25.9,5.8C25.4,5.3,24.7,5,24,5c0,0,0,0,0,0c-0.7,0-1.4,0.3-1.9,0.8l-3.5,3.5l4.1,4.1c0.4-0.2,0.8-0.3,1.3-0.3c1.7,0,3,1.3,3,3c0,0.5-0.1,0.9-0.3,1.3l4,4c0.4-0.2,0.8-0.3,1.3-0.3c1.7,0,3,1.3,3,3s-1.3,3-3,3c-1.7,0-3-1.3-3-3c0-0.5,0.1-0.9,0.3-1.3l-4-4c-0.1,0-0.2,0.1-0.3,0.1v10.4c1.2,0.4,2,1.5,2,2.8c0,1.7-1.3,3-3,3s-3-1.3-3-3c0-1.3,0.8-2.4,2-2.8V18.8c-1.2-0.4-2-1.5-2-2.8c0-0.5,0.1-0.9,0.3-1.3l-4.1-4.1L5.8,22.1C5.3,22.6,5,23.3,5,24c0,0.7,0.3,1.4,0.8,1.9l16.3,16.3c0,0,0,0,0,0c0.5,0.5,1.2,0.8,1.9,0.8s1.4-0.3,1.9-0.8l16.3-16.3c0.5-0.5,0.8-1.2,0.8-1.9C43,23.3,42.7,22.6,42.2,22.1z"/>
    </g>
    <g id="html">
        <path fill="#E65100" d="M41,5H7l3,34l14,4l14-4L41,5L41,5z"/>
        <path fill="#FF6D00" d="M24 8L24 39.9 35.2 36.7 37.7 8z"/>
        <path fill="#FFF" d="M24,25v-4h8.6l-0.7,11.5L24,35.1v-4.2l4.1-1.4l0.3-4.5H24z M32.9,17l0.3-4H24v4H32.9z"/>
        <path fill="#EEE"
              d="M24,30.9v4.2l-7.9-2.6L15.7,27h4l0.2,2.5L24,30.9z M19.1,17H24v-4h-9.1l0.7,12H24v-4h-4.6L19.1,17z"/>
    </g>
    <g id="javaScript">
        <path fill="#ffd600" d="M6,42V6h36v36H6z"/>
        <path fill="#000001"
              d="M29.538 32.947c.692 1.124 1.444 2.201 3.037 2.201 1.338 0 2.04-.665 2.04-1.585 0-1.101-.726-1.492-2.198-2.133l-.807-.344c-2.329-.988-3.878-2.226-3.878-4.841 0-2.41 1.845-4.244 4.728-4.244 2.053 0 3.528.711 4.592 2.573l-2.514 1.607c-.553-.988-1.151-1.377-2.078-1.377-.946 0-1.545.597-1.545 1.377 0 .964.6 1.354 1.985 1.951l.807.344C36.452 29.645 38 30.839 38 33.523 38 36.415 35.716 38 32.65 38c-2.999 0-4.702-1.505-5.65-3.368L29.538 32.947zM17.952 33.029c.506.906 1.275 1.603 2.381 1.603 1.058 0 1.667-.418 1.667-2.043V22h3.333v11.101c0 3.367-1.953 4.899-4.805 4.899-2.577 0-4.437-1.746-5.195-3.368L17.952 33.029z"/>
    </g>
    <g id="react">
        <g>
            <path style="fill:#98CCFD;"
                  d="M23.5,20c0,1.935-1.565,3.5-3.5,3.5s-3.5-1.565-3.5-3.5s1.565-3.5,3.5-3.5S23.5,18.065,23.5,20z"/>
            <path style="fill:#4788C7;" d="M20,24c-2.206,0-4-1.794-4-4s1.794-4,4-4s4,1.794,4,4S22.206,24,20,24z M20,17c-1.654,0-3,1.346-3,3
		s1.346,3,3,3s3-1.346,3-3S21.654,17,20,17z"/>
        </g>
        <g>
            <path style="fill:#98CCFD;" d="M39.5,20c0-2.796-2.912-5.232-7.492-6.787c0.576-2.671,0.655-5.055,0.166-6.881
		c-0.408-1.522-1.181-2.617-2.296-3.253c-0.671-0.382-1.438-0.577-2.279-0.577c-2.207,0-4.893,1.401-7.597,3.791
		C17.296,3.902,14.609,2.5,12.4,2.5c-0.842,0-1.608,0.194-2.279,0.577C9.006,3.714,8.232,4.81,7.825,6.333
		c-0.489,1.826-0.41,4.21,0.165,6.88C3.412,14.768,0.5,17.205,0.5,20s2.912,5.232,7.491,6.786c-0.576,2.67-0.655,5.054-0.165,6.88
		c0.407,1.524,1.181,2.619,2.297,3.257c0.671,0.382,1.438,0.577,2.279,0.577c0.001,0,0,0,0.001,0c2.208,0,4.894-1.401,7.598-3.793
		c2.704,2.389,5.39,3.789,7.597,3.79c0.001,0,0.001,0,0.001,0c0.842,0,1.608-0.194,2.28-0.577c1.114-0.636,1.887-1.731,2.294-3.253
		c0.489-1.826,0.41-4.21-0.165-6.88C36.587,25.233,39.5,22.796,39.5,20z M28.888,4.817c0.634,0.362,1.09,1.046,1.354,2.033
		c0.401,1.496,0.322,3.509-0.158,5.79c-1.596-0.417-3.343-0.734-5.208-0.938c-1.11-1.502-2.269-2.855-3.44-4.041
		c2.397-2.087,4.598-3.158,6.163-3.158C28.089,4.503,28.522,4.609,28.888,4.817z M25.784,23.287
		c-0.653,1.117-1.324,2.152-2.003,3.119c-1.205,0.105-2.467,0.162-3.782,0.162c-1.316,0-2.578-0.058-3.784-0.162
		c-0.679-0.967-1.35-2.002-2.003-3.119C13.576,22.197,13,21.096,12.481,20c0.519-1.095,1.095-2.197,1.732-3.287
		c0.653-1.117,1.325-2.152,2.004-3.12c1.205-0.105,2.468-0.162,3.783-0.162c1.315,0,2.577,0.057,3.781,0.162
		c0.679,0.968,1.35,2.002,2.003,3.119c0.637,1.09,1.214,2.192,1.733,3.287C26.998,21.096,26.421,22.197,25.784,23.287z
		 M28.558,22.392c0.41,1.036,0.756,2.052,1.041,3.035c-0.99,0.258-2.057,0.478-3.194,0.655c0.377-0.582,0.748-1.174,1.106-1.787
		C27.881,23.663,28.226,23.028,28.558,22.392z M20,30.983c-0.729-0.738-1.467-1.556-2.205-2.47c0.724,0.034,1.457,0.055,2.205,0.055
		c0.747,0,1.48-0.021,2.203-0.055C21.466,29.427,20.729,30.246,20,30.983z M13.593,26.082c-1.136-0.177-2.203-0.397-3.193-0.655
		c0.285-0.983,0.63-1.998,1.04-3.034c0.332,0.635,0.677,1.271,1.046,1.903C12.844,24.908,13.216,25.5,13.593,26.082z M11.44,17.607
		c-0.41-1.036-0.755-2.051-1.04-3.034c0.99-0.258,2.057-0.478,3.194-0.655c-0.377,0.582-0.749,1.174-1.107,1.786
		C12.117,16.337,11.772,16.972,11.44,17.607z M20.001,9.018c0.729,0.737,1.466,1.555,2.202,2.469
		c-0.723-0.034-1.456-0.055-2.203-0.055s-1.48,0.021-2.203,0.055C18.534,10.573,19.272,9.755,20.001,9.018z M27.511,15.704
		c-0.358-0.613-0.729-1.205-1.106-1.787c1.137,0.177,2.204,0.397,3.194,0.655c-0.285,0.984-0.631,1.999-1.041,3.036
		C28.226,16.973,27.881,16.337,27.511,15.704z M9.757,6.851c0.265-0.989,0.721-1.674,1.355-2.037C11.478,4.606,11.911,4.5,12.4,4.5
		c1.567,0,3.768,1.072,6.166,3.161c-1.172,1.187-2.332,2.539-3.443,4.042c-1.865,0.204-3.612,0.522-5.208,0.939
		C9.435,10.359,9.356,8.346,9.757,6.851z M2.5,20c0-1.729,2.231-3.566,5.983-4.857C8.935,16.708,9.538,18.342,10.28,20
		c-0.742,1.658-1.345,3.292-1.797,4.857C4.731,23.566,2.5,21.729,2.5,20z M12.401,35.5c-0.49,0-0.924-0.106-1.288-0.313
		c-0.636-0.363-1.092-1.048-1.356-2.037c-0.401-1.496-0.322-3.509,0.158-5.79c1.596,0.417,3.342,0.734,5.207,0.938
		c1.111,1.503,2.271,2.856,3.444,4.043C16.168,34.429,13.967,35.5,12.401,35.5z M30.241,33.15c-0.265,0.987-0.72,1.671-1.354,2.033
		c-0.365,0.208-0.799,0.314-1.289,0.314c-1.566,0-3.767-1.071-6.164-3.157c1.172-1.187,2.331-2.54,3.441-4.042
		c1.865-0.204,3.611-0.522,5.207-0.938C30.563,29.641,30.642,31.654,30.241,33.15z M31.515,24.858
		c-0.452-1.565-1.055-3.199-1.797-4.858c0.742-1.659,1.345-3.293,1.797-4.858C35.268,16.433,37.5,18.271,37.5,20
		C37.5,21.729,35.268,23.567,31.515,24.858z"/>
            <path style="fill:#4788C7;" d="M12.402,38c-0.93,0-1.78-0.216-2.528-0.642c-1.237-0.708-2.089-1.906-2.532-3.563
		c-0.472-1.762-0.446-4.064,0.07-6.682C2.694,25.42,0,22.842,0,20s2.694-5.42,7.412-7.114c-0.517-2.617-0.542-4.92-0.07-6.682
		C7.785,4.548,8.637,3.35,9.873,2.643c2.52-1.438,6.178-0.393,10.128,2.988c3.949-3.378,7.604-4.422,10.125-2.986
		c1.235,0.705,2.087,1.902,2.531,3.558c0.472,1.763,0.446,4.066-0.071,6.683C37.305,14.579,40,17.158,40,20
		c0,2.842-2.695,5.421-7.414,7.115c0.518,2.617,0.542,4.919,0.07,6.682c-0.443,1.656-1.294,2.853-2.529,3.558
		C27.604,38.793,23.946,37.746,20,34.37C17.224,36.747,14.604,38,12.402,38z M12.4,3c-0.753,0-1.437,0.172-2.031,0.511
		C9.373,4.081,8.68,5.074,8.309,6.462c-0.458,1.707-0.398,4.005,0.171,6.646l0.094,0.436l-0.422,0.144C3.606,15.23,1,17.531,1,20
		s2.606,4.77,7.151,6.313l0.422,0.144l-0.094,0.436c-0.569,2.641-0.629,4.939-0.171,6.646c0.371,1.389,1.064,2.382,2.062,2.952
		C10.965,36.828,11.648,37,12.401,37h0.001c2.012,0,4.592-1.302,7.267-3.667L20,33.04l0.331,0.293
		c2.674,2.362,5.255,3.664,7.267,3.664c0.754,0,1.438-0.172,2.034-0.511c0.994-0.568,1.687-1.56,2.058-2.948
		c0.458-1.707,0.398-4.004-0.171-6.645l-0.094-0.436l0.422-0.144C36.393,24.771,39,22.469,39,20c0-2.47-2.607-4.771-7.153-6.313
		l-0.422-0.144l0.095-0.436c0.569-2.641,0.629-4.939,0.171-6.646c-0.372-1.389-1.065-2.38-2.061-2.948
		c-0.595-0.339-1.278-0.511-2.031-0.511c-2.011,0-4.591,1.302-7.267,3.666l-0.331,0.293L19.67,6.668C16.994,4.303,14.413,3,12.4,3z
		 M12.401,36c-0.577,0-1.094-0.127-1.535-0.379c-0.756-0.432-1.292-1.22-1.593-2.342c-0.408-1.527-0.355-3.61,0.152-6.022
		l0.108-0.513l0.507,0.132c1.591,0.415,3.317,0.727,5.135,0.925l0.217,0.024L15.523,28c1.073,1.451,2.217,2.793,3.397,3.989
		l0.374,0.379l-0.401,0.35C16.464,34.834,14.158,36,12.401,36z M10.303,27.973c-0.468,2.04-0.482,3.777-0.063,5.047
		c0.278,0.841,0.605,1.438,1.121,1.732c1.294,0.739,3.813-0.237,6.473-2.446c-1.033-1.08-2.035-2.267-2.984-3.536
		C13.257,28.588,11.73,28.32,10.303,27.973z M27.599,35.997c-1.757,0-4.063-1.165-6.491-3.28l-0.401-0.349l0.374-0.379
		c1.185-1.202,2.327-2.543,3.394-3.988l0.13-0.176l0.218-0.024c1.819-0.199,3.548-0.51,5.137-0.925l0.508-0.132l0.107,0.513
		c0.507,2.414,0.56,4.496,0.151,6.022c-0.301,1.121-0.836,1.908-1.589,2.338C28.693,35.87,28.176,35.997,27.599,35.997z
		 M22.166,32.306c2.66,2.207,5.171,3.184,6.475,2.443c0.513-0.292,0.839-0.889,1.117-1.728c0.422-1.271,0.405-3.008-0.062-5.047
		c-1.427,0.347-2.954,0.614-4.549,0.797C24.204,30.035,23.203,31.221,22.166,32.306z M20,31.695l-0.355-0.36
		c-0.773-0.782-1.526-1.625-2.238-2.508l-0.7-0.867l1.112,0.053c1.431,0.068,2.931,0.068,4.361,0l1.111-0.053l-0.698,0.866
		c-0.71,0.879-1.462,1.723-2.237,2.507L20,31.695z M18.898,29.054c0.359,0.417,0.728,0.822,1.102,1.212
		c0.374-0.392,0.741-0.796,1.101-1.212C20.372,29.073,19.627,29.073,18.898,29.054z M20,27.068c-1.284,0-2.571-0.055-3.827-0.164
		l-0.232-0.02l-0.134-0.191c-0.721-1.027-1.402-2.089-2.025-3.154c-0.619-1.061-1.209-2.179-1.753-3.325L11.927,20l0.102-0.214
		c0.544-1.146,1.134-2.265,1.753-3.325c0.63-1.078,1.293-2.109,2.027-3.155l0.134-0.19l0.232-0.02c2.508-0.218,5.142-0.218,7.649,0
		l0.232,0.02l0.134,0.191c0.736,1.05,1.399,2.082,2.025,3.154c0.625,1.07,1.215,2.188,1.753,3.326L28.069,20l-0.101,0.214
		c-0.538,1.137-1.128,2.256-1.753,3.326c-0.626,1.072-1.289,2.104-2.025,3.154l-0.134,0.191l-0.232,0.02
		C22.57,27.013,21.284,27.068,20,27.068z M16.491,25.928c2.309,0.187,4.71,0.187,7.015,0c0.667-0.961,1.272-1.91,1.847-2.893
		c0.571-0.977,1.112-1.997,1.61-3.035c-0.498-1.038-1.039-2.058-1.61-3.035c-0.574-0.983-1.18-1.932-1.847-2.893
		c-2.306-0.187-4.711-0.187-7.013,0c-0.665,0.958-1.271,1.906-1.849,2.894c-0.565,0.968-1.107,1.988-1.61,3.034
		c0.503,1.045,1.044,2.065,1.61,3.035C15.215,24.01,15.836,24.982,16.491,25.928z M25.377,26.749l0.607-0.938
		c0.373-0.576,0.74-1.162,1.095-1.767c0.366-0.626,0.707-1.255,1.035-1.883l0.506-0.968l0.402,1.016
		c0.405,1.023,0.761,2.06,1.057,3.081l0.143,0.494l-0.497,0.129c-1.017,0.264-2.107,0.488-3.243,0.665L25.377,26.749z M28.479,23.6
		c-0.174,0.316-0.353,0.633-0.537,0.949c-0.168,0.288-0.34,0.571-0.513,0.851c0.528-0.1,1.042-0.209,1.54-0.329
		C28.819,24.581,28.655,24.09,28.479,23.6z M14.621,26.749l-1.105-0.172c-1.136-0.177-2.227-0.401-3.241-0.665l-0.497-0.129
		l0.143-0.493c0.294-1.017,0.649-2.053,1.056-3.08l0.402-1.017l0.506,0.97c0.327,0.628,0.668,1.256,1.034,1.882
		c0.354,0.605,0.722,1.191,1.095,1.767L14.621,26.749z M11.029,25.069c0.496,0.119,1.01,0.229,1.537,0.329
		c-0.173-0.279-0.344-0.562-0.512-0.85c-0.185-0.315-0.362-0.631-0.536-0.948C11.342,24.092,11.179,24.582,11.029,25.069z
		 M31.18,25.502l-0.146-0.505c-0.446-1.548-1.043-3.16-1.772-4.792L29.17,20l0.092-0.204c0.729-1.63,1.326-3.243,1.773-4.792
		l0.146-0.505l0.498,0.171C35.637,16.031,38,18.024,38,20c0,1.977-2.363,3.969-6.322,5.331L31.18,25.502z M30.265,20
		c0.63,1.427,1.159,2.84,1.579,4.209C34.993,23.039,37,21.412,37,20s-2.007-3.039-5.156-4.209
		C31.424,17.162,30.894,18.574,30.265,20z M8.817,25.501L8.32,25.33C4.363,23.968,2,21.976,2,20s2.363-3.968,6.32-5.33l0.497-0.171
		l0.146,0.505c0.449,1.554,1.045,3.167,1.772,4.792L10.828,20l-0.092,0.204c-0.728,1.625-1.323,3.238-1.772,4.792L8.817,25.501z
		 M8.155,15.791C5.006,16.962,3,18.589,3,20s2.006,3.038,5.155,4.209c0.421-1.375,0.95-2.787,1.578-4.209
		C9.105,18.578,8.576,17.166,8.155,15.791z M11.378,18.809l-0.402-1.017c-0.406-1.027-0.762-2.063-1.056-3.08l-0.143-0.493
		l0.497-0.129c1.016-0.264,2.106-0.488,3.242-0.665l1.106-0.172l-0.61,0.939c-0.373,0.575-0.74,1.161-1.095,1.766
		c-0.366,0.625-0.707,1.254-1.034,1.882L11.378,18.809z M11.029,14.931c0.149,0.487,0.313,0.978,0.489,1.469
		c0.174-0.316,0.352-0.632,0.536-0.948c0.168-0.287,0.339-0.57,0.512-0.85C12.039,14.701,11.525,14.812,11.029,14.931z
		 M28.62,18.809l-0.506-0.969c-0.328-0.629-0.669-1.257-1.035-1.883c-0.354-0.605-0.722-1.191-1.095-1.767l-0.607-0.938l1.104,0.172
		c1.137,0.177,2.229,0.401,3.243,0.666l0.497,0.129l-0.143,0.494c-0.296,1.02-0.651,2.057-1.057,3.081L28.62,18.809z M27.43,14.601
		c0.173,0.28,0.345,0.563,0.513,0.851c0.185,0.316,0.363,0.632,0.537,0.949c0.176-0.491,0.34-0.982,0.49-1.47
		C28.473,14.811,27.958,14.701,27.43,14.601z M30.465,13.257l-0.507-0.132c-1.587-0.415-3.315-0.726-5.137-0.925l-0.218-0.024
		l-0.13-0.176c-1.07-1.449-2.212-2.791-3.394-3.987l-0.374-0.379l0.401-0.35c3.229-2.811,6.243-3.919,8.027-2.901
		c0.755,0.431,1.29,1.218,1.591,2.338c0.408,1.527,0.355,3.61-0.152,6.023L30.465,13.257z M25.147,11.229
		c1.597,0.183,3.123,0.451,4.549,0.798c0.517-1.907,0.59-3.595,0.063-5.048c-0.302-0.83-0.604-1.435-1.119-1.729
		c-1.298-0.74-3.812,0.236-6.473,2.444C23.2,8.775,24.201,9.962,25.147,11.229z M9.534,13.257l-0.108-0.513
		c-0.508-2.413-0.561-4.495-0.152-6.022c0.301-1.123,0.836-1.911,1.591-2.341c1.789-1.02,4.801,0.091,8.03,2.904l0.402,0.35
		l-0.375,0.379c-1.184,1.197-2.326,2.539-3.396,3.987l-0.13,0.176l-0.218,0.024c-1.818,0.199-3.547,0.51-5.137,0.925L9.534,13.257z
		 M12.4,5c-0.401,0-0.751,0.083-1.041,0.249c-0.514,0.293-0.774,0.916-1.119,1.731c-0.54,1.275-0.449,3.011,0.063,5.047
		c1.428-0.347,2.954-0.615,4.549-0.798c0.946-1.267,1.948-2.453,2.983-3.534C15.766,5.977,13.803,5,12.4,5z M16.709,12.039
		l0.699-0.866c0.71-0.88,1.463-1.723,2.237-2.507l0.355-0.36l0.355,0.36c0.777,0.787,1.529,1.63,2.236,2.506l0.697,0.866
		l-1.11-0.052c-1.43-0.067-2.93-0.067-4.359,0L16.709,12.039z M20,10.932c0.37,0,0.737,0.005,1.101,0.014
		c-0.357-0.415-0.726-0.819-1.1-1.211c-0.374,0.391-0.742,0.795-1.101,1.211C19.264,10.937,19.63,10.932,20,10.932z"/>
        </g>
    </g>
    <g id="redux">
        <path fill="#7e57c2"
              d="M23,4c-6.617,0-12,7.27-12,16.205c0,4.834,1.582,9.169,4.078,12.136C15.03,32.554,15,32.773,15,33	c0,1.657,1.343,3,3,3s3-1.343,3-3s-1.343-3-3-3c-0.315,0-0.612,0.062-0.897,0.152C15.206,27.731,14,24.175,14,20.205	C14,12.924,18.037,7,23,7c3.837,0,7.111,3.547,8.404,8.518c1.122,0.346,2.237,0.782,3.33,1.308C33.579,9.508,28.759,4,23,4z"/>
        <path fill="#7e57c2"
              d="M35.507,20.084c-3.947-2.392-8.374-3.442-12.182-2.959C22.775,16.444,21.943,16,21,16	c-1.657,0-3,1.343-3,3s1.343,3,3,3c1.272,0,2.353-0.795,2.789-1.912c3.118-0.379,6.812,0.531,10.163,2.563	c6.403,3.881,9.67,10.569,7.282,14.911c-0.827,1.504-2.286,2.572-4.218,3.09c-2.286,0.611-5.007,0.394-7.727-0.528	c-0.839,0.772-1.749,1.498-2.725,2.168c2.552,1.117,5.196,1.704,7.669,1.704c1.24,0,2.438-0.147,3.559-0.447	c2.741-0.733,4.841-2.304,6.071-4.542C47.016,33.276,43.267,24.787,35.507,20.084z"/>
        <path fill="#7e57c2"
              d="M35,28.992C35,27.34,33.657,26,32,26s-3,1.34-3,2.992c0,0.669,0.228,1.281,0.6,1.779	c-1.279,2.802-3.744,5.567-7.062,7.578c-3.865,2.344-8.185,3.202-11.555,2.302c-1.932-0.518-3.391-1.586-4.218-3.09	c-1.702-3.094-0.521-7.376,2.61-10.988c-0.323-1.144-0.562-2.34-0.706-3.575c-5.07,4.797-7.109,11.323-4.532,16.009	c1.23,2.238,3.33,3.809,6.071,4.542c1.121,0.3,2.318,0.447,3.559,0.447c3.346,0,7.007-1.068,10.326-3.08	c3.836-2.325,6.683-5.577,8.209-8.962C33.815,31.801,35,30.541,35,28.992z"/>
    </g>
    <g id="sass">
        <path fill="#f06292"
              d="M39.867,25.956c-1.538,0.008-2.87,0.377-3.986,0.928c-0.408-0.815-0.822-1.532-0.891-2.065	c-0.081-0.622-0.175-0.994-0.077-1.735c0.098-0.741,0.527-1.791,0.521-1.87c-0.006-0.079-0.096-0.456-0.983-0.463	c-0.887-0.006-1.646,0.171-1.735,0.405c-0.089,0.234-0.26,0.761-0.366,1.311c-0.155,0.804-1.771,3.673-2.688,5.173	c-0.3-0.586-0.555-1.102-0.608-1.51c-0.081-0.622-0.175-0.994-0.077-1.735c0.098-0.741,0.527-1.791,0.521-1.87	c-0.006-0.079-0.096-0.456-0.983-0.463c-0.887-0.006-1.646,0.171-1.735,0.405c-0.089,0.234-0.185,0.781-0.366,1.311	c-0.182,0.529-2.329,5.314-2.892,6.555c-0.287,0.632-0.536,1.14-0.712,1.486c-0.001-0.001-0.001-0.002-0.001-0.002	s-0.011,0.023-0.029,0.062c-0.151,0.295-0.24,0.458-0.24,0.458s0.001,0.002,0.003,0.006c-0.12,0.217-0.248,0.418-0.311,0.418	c-0.044,0-0.133-0.577,0.019-1.369c0.32-1.66,1.087-4.248,1.08-4.338c-0.004-0.046,0.143-0.497-0.501-0.733	c-0.626-0.229-0.849,0.153-0.906,0.154c-0.055,0.001-0.096,0.135-0.096,0.135s0.697-2.911-1.33-2.911	c-1.268,0-3.024,1.387-3.889,2.644c-0.546,0.298-1.715,0.936-2.954,1.617c-0.476,0.262-0.962,0.529-1.423,0.783	c-0.031-0.035-0.063-0.069-0.095-0.104c-2.459-2.623-7.003-4.478-6.811-8.005c0.07-1.282,0.516-4.658,8.733-8.752	c6.731-3.354,12.12-2.431,13.051-0.386c1.33,2.923-2.88,8.354-9.87,9.138c-2.663,0.299-4.066-0.734-4.415-1.118	c-0.367-0.405-0.422-0.423-0.559-0.347c-0.223,0.124-0.082,0.481,0,0.694c0.209,0.543,1.065,1.506,2.525,1.986	c1.285,0.422,4.412,0.653,8.193-0.81c4.236-1.638,7.543-6.196,6.571-10.005c-0.988-3.874-7.412-5.148-13.492-2.988	C12.44,9.332,8.523,11.35,5.706,13.984c-3.349,3.132-3.883,5.859-3.663,6.998c0.782,4.048,6.361,6.684,8.595,8.637	c-0.11,0.061-0.214,0.118-0.308,0.17c-1.12,0.554-5.373,2.78-6.437,5.131c-1.207,2.667,0.192,4.581,1.118,4.839	c2.869,0.798,5.813-0.638,7.396-2.998c1.582-2.359,1.389-5.432,0.663-6.834c-0.009-0.017-0.019-0.034-0.028-0.052	c0.289-0.171,0.584-0.345,0.876-0.517c0.57-0.335,1.13-0.647,1.615-0.911c-0.272,0.744-0.471,1.637-0.574,2.926	c-0.122,1.514,0.499,3.471,1.311,4.241c0.358,0.339,0.788,0.347,1.06,0.347c0.945,0,1.376-0.786,1.851-1.716	c0.582-1.14,1.099-2.468,1.099-2.468s-0.648,3.586,1.118,3.586c0.644,0,1.291-0.835,1.58-1.26c0.001,0.005,0.001,0.007,0.001,0.007	s0.017-0.028,0.05-0.083c0.067-0.102,0.105-0.167,0.105-0.167s0.001-0.007,0.003-0.019c0.259-0.449,0.833-1.473,1.693-3.162	c1.112-2.182,2.178-4.916,2.178-4.916s0.099,0.668,0.424,1.774c0.191,0.65,0.597,1.369,0.918,2.059	c-0.258,0.358-0.416,0.563-0.416,0.563s0.001,0.004,0.004,0.011c-0.206,0.274-0.437,0.569-0.679,0.857	c-0.878,1.045-1.923,2.239-2.063,2.583c-0.165,0.406-0.126,0.704,0.193,0.945c0.233,0.175,0.647,0.203,1.08,0.174	c0.789-0.053,1.343-0.249,1.617-0.368c0.427-0.151,0.924-0.388,1.39-0.731c0.861-0.633,1.38-1.538,1.33-2.738	c-0.028-0.661-0.238-1.316-0.505-1.934c0.078-0.112,0.156-0.226,0.235-0.34c1.357-1.984,2.41-4.164,2.41-4.164	s0.099,0.668,0.424,1.774c0.164,0.559,0.489,1.17,0.781,1.768c-1.276,1.037-2.067,2.242-2.342,3.032	c-0.508,1.462-0.11,2.124,0.636,2.275c0.338,0.068,0.816-0.087,1.175-0.239c0.447-0.148,0.984-0.395,1.486-0.764	c0.861-0.633,1.689-1.519,1.639-2.718c-0.023-0.546-0.171-1.088-0.372-1.608c1.082-0.451,2.482-0.701,4.266-0.493	c3.827,0.447,4.577,2.836,4.434,3.836c-0.144,1-0.946,1.55-1.215,1.716c-0.268,0.166-0.35,0.224-0.328,0.347	c0.033,0.179,0.157,0.173,0.386,0.134c0.315-0.053,2.009-0.813,2.082-2.659C46.089,28.509,43.844,25.935,39.867,25.956z M10.37,35.9	c-1.268,1.383-3.038,1.905-3.798,1.465c-0.82-0.475-0.495-2.511,1.06-3.979c0.948-0.894,2.172-1.718,2.984-2.225	c0.185-0.111,0.456-0.274,0.786-0.472c0.055-0.031,0.086-0.048,0.086-0.048l-0.001-0.002c0.064-0.038,0.129-0.077,0.196-0.118	C12.25,32.61,11.701,34.449,10.37,35.9z M19.605,29.623c-0.441,1.076-1.365,3.83-1.928,3.682c-0.483-0.127-0.777-2.22-0.096-4.28	c0.342-1.037,1.074-2.276,1.504-2.757c0.692-0.774,1.454-1.027,1.639-0.713C20.959,25.955,19.882,28.948,19.605,29.623z M27.234,33.263c-0.187,0.098-0.359,0.159-0.438,0.112c-0.059-0.035,0.077-0.164,0.077-0.164s0.954-1.027,1.33-1.494	c0.219-0.272,0.472-0.595,0.748-0.955c0.002,0.036,0.003,0.072,0.003,0.107C28.952,32.099,27.764,32.929,27.234,33.263z M33.111,31.923c-0.14-0.099-0.116-0.42,0.343-1.421c0.18-0.393,0.592-1.054,1.306-1.686c0.083,0.26,0.133,0.509,0.132,0.741	C34.883,31.105,33.779,31.683,33.111,31.923z"/>
    </g>
    <g id="typeScript">
        <rect width="36" height="36" x="6" y="6" fill="#1976d2"/>
        <polygon fill="#fff"
                 points="27.49,22 14.227,22 14.227,25.264 18.984,25.264 18.984,40 22.753,40 22.753,25.264 27.49,25.264"/>
        <path fill="#fff"
              d="M39.194,26.084c0,0-1.787-1.192-3.807-1.192s-2.747,0.96-2.747,1.986 c0,2.648,7.381,2.383,7.381,7.712c0,8.209-11.254,4.568-11.254,4.568V35.22c0,0,2.152,1.622,4.733,1.622s2.483-1.688,2.483-1.92 c0-2.449-7.315-2.449-7.315-7.878c0-7.381,10.658-4.469,10.658-4.469L39.194,26.084z"/>
    </g>
    <g id="restAPI">
        <path style="text-indent:0;text-align:start;line-height:normal;text-transform:none;block-progression:tb;-inkscape-font-specification:Sans"
              d="M 21.8125 2 C 20.865898 2 20.030104 2.6659435 19.84375 3.59375 L 19.375 5.9375 C 16.27894 6.8510553 13.490899 8.4196178 11.21875 10.59375 L 9.03125 9.84375 C 8.1423122 9.5428485 7.1654481 9.9443589 6.6875 10.75 L 3.5 16.25 C 3.027264 17.070336 3.1933098 18.124684 3.90625 18.75 L 5.65625 20.3125 C 5.2868322 21.820635 5 23.369737 5 25 C 5 26.630263 5.2875934 28.179634 5.65625 29.6875 L 3.90625 31.25 C 3.1957588 31.875153 3.0276126 32.930269 3.5 33.75 L 6.65625 39.25 C 7.1297552 40.071671 8.1338371 40.460694 9.03125 40.15625 L 11.21875 39.40625 C 13.491583 41.580262 16.279712 43.148938 19.375 44.0625 L 19.84375 46.40625 C 20.031775 47.332522 20.865898 48 21.8125 48 L 28.1875 48 C 29.134102 48 29.969896 47.334057 30.15625 46.40625 L 30.625 44.0625 C 33.72106 43.148945 36.509101 41.580382 38.78125 39.40625 L 40.96875 40.15625 C 41.857688 40.457152 42.834552 40.055641 43.3125 39.25 L 46.5 33.75 C 46.972387 32.930269 46.804241 31.875153 46.09375 31.25 L 44.34375 29.6875 C 44.712407 28.179634 45 26.630263 45 25 C 45 23.369737 44.712407 21.820366 44.34375 20.3125 L 46.09375 18.75 C 46.804241 18.124847 46.972387 17.069731 46.5 16.25 L 43.34375 10.75 C 42.870245 9.9283293 41.866163 9.5393061 40.96875 9.84375 L 38.78125 10.59375 C 36.508417 8.4197383 33.720288 6.8510623 30.625 5.9375 L 30.15625 3.59375 C 29.968225 2.6674776 29.134102 2 28.1875 2 L 21.8125 2 z M 21.8125 4 L 28.1875 4 L 28.75 6.8125 L 28.875 7.4375 L 29.46875 7.59375 C 32.702789 8.4231122 35.580452 10.095603 37.84375 12.40625 L 38.28125 12.875 L 38.90625 12.65625 L 41.59375 11.75 L 44.78125 17.25 L 42.625 19.15625 L 42.15625 19.5625 L 42.3125 20.15625 C 42.743644 21.704753 43 23.32725 43 25 C 43 26.67275 42.743644 28.295247 42.3125 29.84375 L 42.15625 30.4375 L 42.625 30.84375 L 44.78125 32.75 L 41.59375 38.25 L 38.875 37.34375 L 38.28125 37.125 L 37.84375 37.59375 C 35.581548 39.904245 32.703791 41.576874 29.46875 42.40625 L 28.875 42.5625 L 28.75 43.1875 L 28.1875 46 L 21.8125 46 L 21.25 43.1875 L 21.125 42.5625 L 20.53125 42.40625 C 17.297211 41.576888 14.419548 39.904397 12.15625 37.59375 L 11.71875 37.125 L 11.09375 37.34375 L 8.40625 38.25 L 5.21875 32.75 L 7.375 30.84375 L 7.84375 30.4375 L 7.6875 29.84375 C 7.2563556 28.295247 7 26.67275 7 25 C 7 23.32725 7.2555006 21.704406 7.6875 20.15625 L 7.84375 19.5625 L 7.375 19.15625 L 5.21875 17.25 L 8.40625 11.75 L 11.125 12.65625 L 11.71875 12.875 L 12.15625 12.40625 C 14.418452 10.095755 17.296209 8.4231261 20.53125 7.59375 L 21.125 7.4375 L 21.25 6.8125 L 21.8125 4 z M 34.90625 17.96875 A 1.0001 1.0001 0 0 0 34.78125 18 L 34 18 A 1.0001 1.0001 0 0 0 33.90625 18 A 1.001098 1.001098 0 0 0 34 20 L 34 30 A 1.0001 1.0001 0 0 0 33.90625 30 A 1.001098 1.001098 0 0 0 34 32 L 34.8125 32 L 35.21875 32 L 36 32 A 1.0001 1.0001 0 1 0 36 30 L 36 20 A 1.0001 1.0001 0 1 0 36 18 L 35.1875 18 A 1.0001 1.0001 0 0 0 34.90625 17.96875 z M 16.375 18 A 1.0001 1.0001 0 0 0 15.53125 18.71875 L 12.03125 30.09375 A 1.0001 1.0001 0 0 0 12 30.40625 L 12 31 A 1.0001 1.0001 0 1 0 14 31 L 14 30.59375 L 14.5 29 L 18.5 29 L 19 30.59375 L 19 31 A 1.0001 1.0001 0 1 0 21 31 L 21 30.40625 A 1.0001 1.0001 0 0 0 20.96875 30.09375 L 17.46875 18.71875 A 1.0001 1.0001 0 0 0 16.375 18 z M 23.8125 18 A 1.0001 1.0001 0 0 0 23 19 L 23 25.8125 A 1.0001 1.0001 0 0 0 23 26.21875 L 23 31 A 1.0001 1.0001 0 1 0 25 31 L 25 27 L 28 27 C 29.64497 27 31 25.64497 31 24 L 31 21 C 31 19.35503 29.64497 18 28 18 L 24 18 A 1.0001 1.0001 0 0 0 23.90625 18 A 1.0001 1.0001 0 0 0 23.8125 18 z M 25 20 L 28 20 C 28.56503 20 29 20.43497 29 21 L 29 24 C 29 24.56503 28.56503 25 28 25 L 25 25 L 25 20 z M 16.5 22.4375 L 17.90625 27 L 15.09375 27 L 16.5 22.4375 z"/>
    </g>
    <g id="styledComponents">
        <path d="m18.05 29.6c.042-.095.148-.161.225-.241 1.175-1.232 2.36-2.453 3.519-3.7a3.2 3.2 0 0 0 1.014-2.659 5.925 5.925 0 0 0 -.143-.624c-.316.3-.61.573-.906.848-.46.428-.918.858-1.382 1.281a1.931 1.931 0 0 1 -2.148.419 1.973 1.973 0 0 1 -1.29-1.75 1.04 1.04 0 0 0 -.043-.146c-.353.3-.691.576-1.026.86l-6.963 5.9c-.048.041-.1.092-.145.132h9.283l-.014-.009c-.05-.035-.024-.219.019-.311z"
              fill="#ffcebf"/>
        <path d="m8.337 29.6a1.239 1.239 0 0 1 .295-.276l9.636-8.175q.986-.837 1.963-1.683a.523.523 0 0 0 .182-.224 5.364 5.364 0 0 0 .065-2.069c-.1.07-.154.1-.2.149-.789.706-1.574 1.418-2.367 2.12a1.762 1.762 0 0 1 -2.048.329 1.889 1.889 0 0 1 -1.08-1.807c0-.085 0-.169 0-.324-.145.106-.251.177-.35.257q-5.785 4.632-11.568 9.257c-.174.139-.382.449-.61.148s.119-.425.294-.565q6.165-4.947 12.336-9.885c.67-.537.714-.762.278-1.615l-.26.244c-.713.663-1.434 1.317-2.136 1.991a2.121 2.121 0 0 1 -3.585-1.337c-.133.1-.248.173-.357.258l-6.1 4.728a1.485 1.485 0 0 1 -.356.258.446.446 0 0 1 -.3-.015v8.561h6.256a.365.365 0 0 1 .012-.325z"
              fill="#ffcebf"/>
        <path d="m25.237 2.423c-.17.557-.335 1.115-.484 1.678a1.688 1.688 0 0 0 .9 2.09 7.122 7.122 0 0 0 3.818.8v-4.473a.73.73 0 0 1 .016-.294.666.666 0 0 1 .105-.149h-4.359c.067.078.044.215.004.348z"
              fill="#ff6196"/>
        <g fill="#ff87af">
            <path d="m16.482 12.032a2.422 2.422 0 0 1 -.5 1.376 22.671 22.671 0 0 1 -3.726 3.792 1.442 1.442 0 0 1 -1.684.2 1.393 1.393 0 0 1 -.843-1.368 1.624 1.624 0 0 1 .417-.947 35.848 35.848 0 0 1 5.019-3.993.71.71 0 0 1 .829-.034 1.041 1.041 0 0 1 .488.974z"/>
            <path d="m15.284 18.093a1.437 1.437 0 0 1 .448-1.2 38.336 38.336 0 0 1 4.87-3.813c.052-.033.1-.066.157-.1a.837.837 0 0 1 1.025.035.861.861 0 0 1 .242.979 4.39 4.39 0 0 1 -1.168 1.908c-1.105 1.1-2.252 2.164-3.4 3.22a1.124 1.124 0 0 1 -1.364.192 1.512 1.512 0 0 1 -.81-1.221z"/>
            <path d="m22.5 18.754c-.28.3-.568.586-.837.893a1.89 1.89 0 0 0 -.2.38c.148.044.321.16.441.119.611-.205 1.207-.451 1.878-.71-.146.336-.256.646-.411.93a12.189 12.189 0 0 1 -2.371 2.872q-.532.513-1.105.981a1.484 1.484 0 0 1 -2.415-.92 1.1 1.1 0 0 1 .238-.813 22.187 22.187 0 0 1 4.623-3.823.193.193 0 0 1 .065-.013z"/>
        </g>
        <path d="m24.794 14.771 1.711-7.6 1.2.281-.619 1.881c-.578 1.75-1.163 3.5-1.727 5.252-.11.324-.254.384-.565.186z"
              fill="#ff6196"/>
        <path d="m22.862 19.241c.181-.691.361-1.33.513-1.976a4.468 4.468 0 0 1 .826-1.721c.243-.319.516-.192.795-.123.258.063.323.252.334.5a2.845 2.845 0 0 1 -.588 1.907 4.8 4.8 0 0 1 -1.88 1.413z"
              fill="#ff6196"/>
        <path d="m29.993 2.894a3.623 3.623 0 0 0 -.017-.668.291.291 0 0 0 -.116-.151.381.381 0 0 0 -.152-.075c-.032-.006-.077.027-.12.074a.666.666 0 0 0 -.105.149.73.73 0 0 0 -.016.294v4.472a7.122 7.122 0 0 1 -3.818-.8 1.688 1.688 0 0 1 -.9-2.09c.149-.563.314-1.121.484-1.678.04-.133.063-.27 0-.348a.2.2 0 0 0 -.135-.064.3.3 0 0 0 -.182.064.434.434 0 0 0 -.171.19c-.2.6-.376 1.206-.529 1.818a2.148 2.148 0 0 0 -.046.737 2.339 2.339 0 0 0 1.542 2c.189.079.3.157.247.406-.073.316-.144.632-.216.949q-.735 3.222-1.462 6.447a.483.483 0 0 1 -.121.257 3.228 3.228 0 0 0 -.791.92 4.8 4.8 0 0 0 -.53 1.5.981.981 0 0 1 -.558.785c-.417.211-.8.484-1.263.768a12.639 12.639 0 0 0 -.018-1.671 1.062 1.062 0 0 1 .284-.96 4.75 4.75 0 0 0 1.258-2.194 1.294 1.294 0 0 0 -1.208-1.7 1.7 1.7 0 0 0 -.929.264c-.957.646-1.888 1.332-2.812 2.026-.547.412-1.062.868-1.592 1.3a.418.418 0 0 1 -.059-.081.842.842 0 0 0 -.059-.214c-.443-.684-.136-1.181.345-1.692a2.793 2.793 0 0 0 .772-1.951 1.568 1.568 0 0 0 -.327-1.026 1.459 1.459 0 0 0 -.438-.363 1.337 1.337 0 0 0 -1.517.162l-.279.2c-.637.456-1.282.9-1.895 1.388-.895.712-1.769 1.454-2.626 2.214-.4.353-.692.835-1.107 1.163-2.164 1.709-4.351 3.387-6.53 5.076a1.022 1.022 0 0 0 -.205.161.164.164 0 0 0 -.016.029c-.046.107-.085.284-.031.349a.141.141 0 0 0 .047.033.446.446 0 0 0 .3.015 1.485 1.485 0 0 0 .356-.258l6.1-4.728c.109-.085.224-.162.357-.258a2.121 2.121 0 0 0 3.585 1.337c.7-.674 1.423-1.328 2.136-1.991l.26-.244c.436.853.392 1.078-.278 1.615q-6.176 4.942-12.343 9.886c-.175.14-.521.267-.294.565s.436-.009.61-.148q5.786-4.621 11.564-9.254c.1-.08.205-.151.35-.257v.324a1.889 1.889 0 0 0 1.08 1.807 1.762 1.762 0 0 0 2.048-.329c.793-.7 1.578-1.414 2.367-2.12.05-.045.108-.079.2-.149a5.364 5.364 0 0 1 -.065 2.069.523.523 0 0 1 -.182.224q-.978.845-1.963 1.683l-9.632 8.176a1.239 1.239 0 0 0 -.295.276.365.365 0 0 0 -.012.321.376.376 0 0 0 .32.063.294.294 0 0 0 .116-.065c.05-.04.1-.091.145-.132l6.963-5.9c.335-.284.673-.564 1.026-.86a1.04 1.04 0 0 1 .043.146 1.973 1.973 0 0 0 1.29 1.75 1.931 1.931 0 0 0 2.148-.419c.464-.423.922-.853 1.382-1.281.3-.275.59-.551.906-.848a5.925 5.925 0 0 1 .143.624 3.2 3.2 0 0 1 -1.014 2.649c-1.159 1.248-2.344 2.469-3.519 3.7-.077.08-.183.146-.225.241s-.069.281-.019.321l.014.009a.573.573 0 0 0 .338.051.136.136 0 0 0 .081-.051c.028-.029.055-.065.082-.092.952-.984 1.909-1.963 2.854-2.954a13.982 13.982 0 0 0 1.074-1.223 3.411 3.411 0 0 0 .61-3.616.516.516 0 0 1 .074-.386c.065-.112.137-.221.211-.329a4.632 4.632 0 0 0 .587-1 7.547 7.547 0 0 1 1.339-2.4 2.792 2.792 0 0 0 .5-2.469.988.988 0 0 1 0-.489c.506-1.567 1.027-3.129 1.543-4.692q.347-1.05.69-2.094l.213-.647c.454 0 .882-.009 1.308 0 .354.01.462-.156.458-.5-.021-1.38-.013-2.759-.013-4.138zm-17.737 14.306a1.442 1.442 0 0 1 -1.684.2 1.393 1.393 0 0 1 -.843-1.368 1.624 1.624 0 0 1 .417-.947 35.848 35.848 0 0 1 5.019-3.993.852.852 0 0 1 .326-.14.656.656 0 0 1 .238 0 .763.763 0 0 1 .265.106 1.041 1.041 0 0 1 .488.975 2.422 2.422 0 0 1 -.5 1.376 22.671 22.671 0 0 1 -3.726 3.791zm5.2 1.929a1.124 1.124 0 0 1 -1.364.192 1.512 1.512 0 0 1 -.81-1.224 1.437 1.437 0 0 1 .448-1.2 38.336 38.336 0 0 1 4.87-3.813c.052-.033.1-.066.157-.1a.837.837 0 0 1 1.025.035.861.861 0 0 1 .242.979 4.39 4.39 0 0 1 -1.168 1.908c-1.103 1.102-2.25 2.163-3.398 3.219zm5.911 1.241a12.189 12.189 0 0 1 -2.367 2.868q-.532.513-1.105.981a1.484 1.484 0 0 1 -2.415-.92 1.1 1.1 0 0 1 .238-.813 22.187 22.187 0 0 1 4.623-3.823.193.193 0 0 1 .065-.013l.1.1c-.28.3-.568.586-.837.893a1.89 1.89 0 0 0 -.2.38c.148.044.321.16.441.119.483-.162.958-.35 1.467-.55l.411-.16c-.154.34-.264.65-.419.934zm1.373-2.535a4.363 4.363 0 0 1 -1.373 1.152q-.247.138-.507.258c.178-.681.356-1.312.507-1.95l.006-.026a4.468 4.468 0 0 1 .826-1.721c.243-.319.516-.192.795-.123.258.063.323.252.334.5a2.845 2.845 0 0 1 -.586 1.906zm2.34-8.5c-.578 1.75-1.163 3.5-1.727 5.252-.106.329-.25.389-.561.191l1.483-6.593.228-1.012 1.2.281c-.082.247-.161.49-.241.731z"/>
    </g>
    <g id="materialUI">
        <path d="m0 110.848v-110.848l96 55.424v36.9493333l-64-36.9493333v73.898667z" fill="#00b0ff"/><path d="m96 55.424 96-55.424v110.848l-64 36.949333-32-18.474666 64-36.9493337v-36.9493333l-64 36.9493333z" fill="#0081cb"/><path d="m96 129.322667v36.949333l64 36.949333v-36.949333z" fill="#00b0ff"/><path d="m160 203.221333 96-55.424v-73.8986663l-32 18.4746666v36.9493337l-64 36.949333zm64-147.797333v-36.9493333l32-18.4746667v36.9493333z" fill="#0081cb"/>
    </g>


    <!-- Social -->

    <g id="github">
        <defs>
            <clipPath id="clip1_4795">
                <rect id="github-svgrepo-com 1" width="30.000000" height="30.000000"
                      transform="translate(-0.500000 -0.500000)" fill="white" fill-opacity="0"/>
            </clipPath>
        </defs>
        <g clip-path="url(#clip1_4795)">
            <path id="SVGCleanerId 0"
                  d="M14.49 -0.19C6.21 -0.19 -0.5 6.55 -0.5 14.87C-0.5 21.52 3.79 27.17 9.76 29.16C10.5 29.3 10.78 28.83 10.78 28.43C10.78 28.07 10.76 27.13 10.76 25.87C6.58 26.78 5.7 23.85 5.7 23.85C5.02 22.11 4.04 21.65 4.04 21.65C2.68 20.71 4.14 20.73 4.14 20.73C5.65 20.84 6.44 22.28 6.44 22.28C7.78 24.59 9.95 23.92 10.81 23.53C10.94 22.56 11.33 21.9 11.76 21.52C8.43 21.14 4.93 19.85 4.93 14.08C4.93 12.44 5.51 11.09 6.47 10.04C6.31 9.66 5.8 8.13 6.62 6.05C6.62 6.05 7.88 5.65 10.74 7.6C11.94 7.26 13.22 7.1 14.5 7.09C15.77 7.1 17.05 7.26 18.25 7.6C21.11 5.65 22.37 6.05 22.37 6.05C23.19 8.13 22.68 9.66 22.52 10.04C23.48 11.09 24.06 12.44 24.06 14.08C24.06 19.86 20.56 21.14 17.22 21.51C17.75 21.98 18.23 22.89 18.23 24.3C18.23 26.31 18.22 27.94 18.22 28.43C18.22 28.83 18.49 29.3 19.25 29.15C25.2 27.16 29.5 21.52 29.5 14.87C29.5 6.55 22.78 -0.19 14.49 -0.19Z"
                  fill="#FFFFFF" fill-opacity="1.000000" />
            <path id="SVGCleanerId 0 1"
                  d="M14.49 -0.19C6.21 -0.19 -0.5 6.55 -0.5 14.87C-0.5 21.52 3.79 27.17 9.76 29.16C10.5 29.3 10.78 28.83 10.78 28.43C10.78 28.07 10.76 27.13 10.76 25.87C6.58 26.78 5.7 23.85 5.7 23.85C5.02 22.11 4.04 21.65 4.04 21.65C2.68 20.71 4.14 20.73 4.14 20.73C5.65 20.84 6.44 22.28 6.44 22.28C7.78 24.59 9.95 23.92 10.81 23.53C10.94 22.56 11.33 21.9 11.76 21.52C8.43 21.14 4.93 19.85 4.93 14.08C4.93 12.44 5.51 11.09 6.47 10.04C6.31 9.66 5.8 8.13 6.62 6.05C6.62 6.05 7.88 5.65 10.74 7.6C11.94 7.26 13.22 7.1 14.5 7.09C15.77 7.1 17.05 7.26 18.25 7.6C21.11 5.65 22.37 6.05 22.37 6.05C23.19 8.13 22.68 9.66 22.52 10.04C23.48 11.09 24.06 12.44 24.06 14.08C24.06 19.86 20.56 21.14 17.22 21.51C17.75 21.98 18.23 22.89 18.23 24.3C18.23 26.31 18.22 27.94 18.22 28.43C18.22 28.83 18.49 29.3 19.25 29.15C25.2 27.16 29.5 21.52 29.5 14.87C29.5 6.55 22.78 -0.19 14.49 -0.19Z"
                  fill="#FFFFFF" fill-opacity="1.000000" />
            <path id="Vector"
                  d="M22.39 6.1C23.18 8.15 22.68 9.66 22.52 10.04C23.48 11.09 24.06 12.44 24.06 14.08C24.06 19.86 20.56 21.14 17.21 21.51C17.75 21.98 18.23 22.89 18.23 24.3C18.23 26.31 18.21 27.94 18.21 28.43C18.21 28.83 18.49 29.3 19.25 29.15C25.2 27.16 29.5 21.52 29.5 14.87C29.5 13.08 29.18 11.37 28.61 9.77C26.55 7.6 24.24 6.15 22.39 6.1Z"
                  fill="#FFFFFF" fill-opacity="1.000000" />
            <path id="Vector"
                  d="M11.17 22.32C11.34 21.98 11.54 21.71 11.76 21.52C9.93 21.31 8.06 20.83 6.73 19.48C7.75 21.18 9.41 21.95 11.17 22.32Z"
                  fill="#FFFFFF" fill-opacity="1.000000" />
            <path id="Vector"
                  d="M0.28 15.88C0.28 7.56 6.99 0.82 15.28 0.82C19.87 0.82 23.99 2.9 26.74 6.17C24.02 2.32 19.55 -0.19 14.49 -0.19C6.21 -0.19 -0.5 6.55 -0.5 14.87C-0.5 18.58 0.83 21.97 3.05 24.59C1.31 22.13 0.28 19.13 0.28 15.88Z"
                  fill="#FFFFFF" fill-opacity="1.000000" />
            <path id="Vector"
                  d="M19.01 25.32C19.01 23.91 18.53 22.99 18 22.53C21.34 22.15 24.85 20.88 24.85 15.1C24.85 13.45 24.26 12.11 23.3 11.05C23.46 10.67 23.97 9.14 23.15 7.07C23.15 7.07 23 7.02 22.68 7.04C23.03 8.6 22.65 9.72 22.52 10.04C23.48 11.09 24.06 12.44 24.06 14.08C24.06 19.86 20.56 21.14 17.21 21.51C17.75 21.98 18.23 22.89 18.23 24.3C18.23 26.31 18.21 27.94 18.21 28.43C18.21 28.79 18.43 29.19 19 29.18C19 28.5 19.01 27.06 19.01 25.32Z"
                  fill="#FFFFFF" fill-opacity="1.000000" />
            <path id="Vector"
                  d="M6.6 25.14C6.91 25.79 7.97 27.34 10.77 27.01C10.76 26.67 10.76 26.29 10.76 25.87C8.6 26.34 7.33 25.79 6.6 25.14Z"
                  fill="#FFFFFF" fill-opacity="1.000000" />
            <path id="Vector" d="M7.14 23.17C7.04 23.02 6.86 22.78 6.6 22.53C6.77 22.78 6.95 22.99 7.14 23.17Z"
                  fill="#FFFFFF" fill-opacity="1.000000" />
        </g>
    </g>
    <g id="linkedIn">
        <path fill="#0288D1"
              d="M42,37c0,2.762-2.238,5-5,5H11c-2.761,0-5-2.238-5-5V11c0-2.762,2.239-5,5-5h26c2.762,0,5,2.238,5,5V37z"/>
        <path fill="#FFF"
              d="M12 19H17V36H12zM14.485 17h-.028C12.965 17 12 15.888 12 14.499 12 13.08 12.995 12 14.514 12c1.521 0 2.458 1.08 2.486 2.499C17 15.887 16.035 17 14.485 17zM36 36h-5v-9.099c0-2.198-1.225-3.698-3.192-3.698-1.501 0-2.313 1.012-2.707 1.99C24.957 25.543 25 26.511 25 27v9h-5V19h5v2.616C25.721 20.5 26.85 19 29.738 19c3.578 0 6.261 2.25 6.261 7.274L36 36 36 36z"/>
    </g>
    <g id="telegram">
        <path fill="#29b6f6" d="M24 4A20 20 0 1 0 24 44A20 20 0 1 0 24 4Z"/>
        <path fill="#fff"
              d="M33.95,15l-3.746,19.126c0,0-0.161,0.874-1.245,0.874c-0.576,0-0.873-0.274-0.873-0.274l-8.114-6.733 l-3.97-2.001l-5.095-1.355c0,0-0.907-0.262-0.907-1.012c0-0.625,0.933-0.923,0.933-0.923l21.316-8.468 c-0.001-0.001,0.651-0.235,1.126-0.234C33.667,14,34,14.125,34,14.5C34,14.75,33.95,15,33.95,15z"/>
        <path fill="#b0bec5"
              d="M23,30.505l-3.426,3.374c0,0-0.149,0.115-0.348,0.12c-0.069,0.002-0.143-0.009-0.219-0.043 l0.964-5.965L23,30.505z"/>
        <path fill="#cfd8dc"
              d="M29.897,18.196c-0.169-0.22-0.481-0.26-0.701-0.093L16,26c0,0,2.106,5.892,2.427,6.912 c0.322,1.021,0.58,1.045,0.58,1.045l0.964-5.965l9.832-9.096C30.023,18.729,30.064,18.416,29.897,18.196z"/>
    </g>
    <g id="vk">
    <path fill="#1976d2"
          d="M42,37c0,2.762-2.238,5-5,5H11c-2.761,0-5-2.238-5-5V11c0-2.762,2.239-5,5-5h26c2.762,0,5,2.238,5,5 V37z"/>
    <path fill="#fff"
          d="M35.937,18.041c0.046-0.151,0.068-0.291,0.062-0.416C35.984,17.263,35.735,17,35.149,17h-2.618 c-0.661,0-0.966,0.4-1.144,0.801c0,0-1.632,3.359-3.513,5.574c-0.61,0.641-0.92,0.625-1.25,0.625C26.447,24,26,23.786,26,23.199 v-5.185C26,17.32,25.827,17,25.268,17h-4.649C20.212,17,20,17.32,20,17.641c0,0.667,0.898,0.827,1,2.696v3.623 C21,24.84,20.847,25,20.517,25c-0.89,0-2.642-3-3.815-6.932C16.448,17.294,16.194,17,15.533,17h-2.643 C12.127,17,12,17.374,12,17.774c0,0.721,0.6,4.619,3.875,9.101C18.25,30.125,21.379,32,24.149,32c1.678,0,1.85-0.427,1.85-1.094 v-2.972C26,27.133,26.183,27,26.717,27c0.381,0,1.158,0.25,2.658,2c1.73,2.018,2.044,3,3.036,3h2.618 c0.608,0,0.957-0.255,0.971-0.75c0.003-0.126-0.015-0.267-0.056-0.424c-0.194-0.576-1.084-1.984-2.194-3.326 c-0.615-0.743-1.222-1.479-1.501-1.879C32.062,25.36,31.991,25.176,32,25c0.009-0.185,0.105-0.361,0.249-0.607 C32.223,24.393,35.607,19.642,35.937,18.041z"/>
    </g>

    <!--  Other  -->
    <g id="gear">
        <defs>
            <clipPath id="clip1_4810">
                <rect id="gears-svgrepo-com 2" width="26.400000" height="24.000000" transform="translate(-0.200012 -0.999878)" fill="white" fill-opacity="0"/>
            </clipPath>
        </defs>
        <g clip-path="url(#clip1_4810)">
            <path id="Vector" d="M15.27 11.33L14.23 10.38C14.35 10.17 14.44 9.96 14.53 9.73L15.99 9.73C16.47 9.73 16.86 9.38 16.86 8.94L16.86 6.62C16.86 6.18 16.47 5.83 15.99 5.83L14.53 5.83C14.44 5.6 14.35 5.39 14.23 5.18L15.27 4.23C15.61 3.93 15.61 3.42 15.27 3.11L13.46 1.47C13.12 1.16 12.57 1.16 12.23 1.47L11.19 2.41C10.96 2.31 10.72 2.22 10.48 2.14L10.48 0.81C10.48 0.38 10.09 0.02 9.61 0.02L7.05 0.02C6.57 0.02 6.18 0.38 6.18 0.81L6.18 2.14C5.94 2.22 5.7 2.31 5.47 2.41L4.43 1.47C4.27 1.32 4.05 1.24 3.81 1.24C3.58 1.24 3.36 1.32 3.2 1.47L1.39 3.11C1.23 3.26 1.14 3.46 1.14 3.67C1.14 3.89 1.23 4.09 1.39 4.24L2.43 5.18C2.31 5.39 2.22 5.6 2.13 5.83L0.67 5.83C0.19 5.83 -0.21 6.18 -0.21 6.62L-0.21 8.94C-0.21 9.38 0.19 9.73 0.67 9.73L2.13 9.73C2.22 9.96 2.31 10.17 2.43 10.38L1.39 11.33C1.05 11.63 1.05 12.14 1.39 12.45L3.2 14.09C3.54 14.4 4.09 14.4 4.43 14.09L5.47 13.15C5.7 13.25 5.94 13.34 6.18 13.42L6.18 14.75C6.18 15.18 6.57 15.54 7.05 15.54L9.61 15.54C10.09 15.54 10.48 15.18 10.48 14.75L10.48 13.42C10.72 13.34 10.96 13.25 11.19 13.15L12.23 14.09C12.57 14.4 13.12 14.4 13.46 14.09L15.27 12.45C15.61 12.14 15.61 11.63 15.27 11.33ZM13.02 8.76C12.9 9.24 12.7 9.69 12.41 10.1C12.2 10.41 12.25 10.82 12.54 11.08L13.42 11.89L12.85 12.41L11.96 11.6C11.68 11.34 11.23 11.3 10.88 11.49C10.43 11.75 9.93 11.94 9.41 12.05C9.02 12.13 8.74 12.45 8.74 12.82L8.74 13.95L7.92 13.95L7.92 12.82C7.92 12.45 7.64 12.13 7.25 12.05C6.73 11.94 6.23 11.75 5.78 11.49C5.43 11.3 4.98 11.34 4.7 11.6L3.81 12.41L3.24 11.89L4.12 11.08C4.41 10.82 4.46 10.41 4.25 10.1C3.96 9.69 3.76 9.24 3.64 8.76C3.54 8.4 3.19 8.15 2.79 8.15L1.54 8.15L1.54 7.41L2.79 7.41C3.19 7.41 3.54 7.16 3.64 6.8C3.76 6.32 3.96 5.87 4.24 5.46C4.46 5.15 4.41 4.74 4.12 4.48L3.24 3.68L3.81 3.15L4.7 3.96C4.98 4.22 5.43 4.26 5.78 4.07C6.23 3.81 6.72 3.62 7.25 3.51C7.64 3.43 7.92 3.11 7.92 2.74L7.92 1.61L8.74 1.61L8.74 2.74C8.74 3.11 9.02 3.43 9.41 3.51C9.93 3.62 10.43 3.81 10.88 4.07C11.23 4.26 11.68 4.22 11.96 3.96L12.85 3.15L13.42 3.67L12.54 4.48C12.25 4.74 12.2 5.15 12.41 5.46C12.7 5.87 12.9 6.32 13.02 6.8C13.11 7.16 13.47 7.41 13.87 7.41L15.12 7.41L15.12 8.15L13.87 8.15C13.47 8.15 13.12 8.4 13.02 8.76Z" fill="#FFFFFF" fill-opacity="0.870000"/>
            <path id="Vector" d="M8.33 4.74C6.48 4.74 4.98 6.1 4.98 7.78C4.98 9.46 6.48 10.82 8.33 10.82C10.18 10.82 11.68 9.46 11.68 7.78C11.68 6.1 10.18 4.74 8.33 4.74ZM8.33 9.24C7.44 9.24 6.72 8.58 6.72 7.78C6.72 6.98 7.44 6.32 8.33 6.32C9.21 6.32 9.94 6.98 9.94 7.78C9.94 8.58 9.21 9.24 8.33 9.24Z" fill="#FFFFFF" fill-opacity="0.870000"/>
            <path id="Vector" d="M25.62 16.86C26 16.8 26.25 16.47 26.18 16.12L25.85 14.5C25.82 14.34 25.72 14.19 25.56 14.1C25.41 14 25.22 13.96 25.04 13.99L24.08 14.16C24 14.04 23.92 13.93 23.83 13.82L24.39 13.08C24.49 12.94 24.54 12.77 24.5 12.6C24.47 12.44 24.36 12.29 24.21 12.2L22.72 11.26C22.4 11.06 21.97 11.14 21.75 11.43L21.19 12.16C21.05 12.13 20.9 12.1 20.75 12.08L20.58 11.2C20.51 10.85 20.14 10.63 19.76 10.69L17.98 10.99C17.8 11.02 17.64 11.11 17.53 11.25C17.43 11.39 17.39 11.56 17.42 11.73L17.6 12.61C17.47 12.67 17.35 12.75 17.23 12.83L16.42 12.32C16.26 12.23 16.08 12.19 15.89 12.22C15.71 12.25 15.55 12.34 15.45 12.48L14.42 13.84C14.31 13.98 14.27 14.15 14.31 14.31C14.34 14.48 14.45 14.63 14.6 14.72L15.41 15.23C15.37 15.36 15.34 15.49 15.31 15.63L14.35 15.79C14.17 15.82 14 15.91 13.9 16.05C13.79 16.19 13.75 16.36 13.79 16.53L14.12 18.15C14.19 18.49 14.55 18.72 14.93 18.65L15.9 18.49C15.97 18.61 16.05 18.72 16.14 18.83L15.58 19.57C15.48 19.71 15.44 19.88 15.47 20.04C15.5 20.21 15.61 20.36 15.76 20.45L17.25 21.39C17.57 21.58 18 21.51 18.22 21.22L18.78 20.49C18.92 20.52 19.07 20.55 19.22 20.57L19.4 21.45C19.46 21.76 19.75 21.97 20.08 21.97C20.12 21.97 20.16 21.97 20.21 21.96L21.99 21.66C22.17 21.63 22.33 21.53 22.44 21.4C22.54 21.26 22.58 21.09 22.55 20.92L22.37 20.04C22.5 19.97 22.62 19.9 22.75 19.82L23.56 20.33C23.71 20.42 23.9 20.46 24.08 20.43C24.26 20.4 24.42 20.3 24.52 20.17L25.55 18.81C25.77 18.52 25.69 18.13 25.37 17.93L24.56 17.42C24.6 17.29 24.63 17.16 24.66 17.02L25.62 16.86ZM23.89 15.86C23.57 15.92 23.34 16.16 23.32 16.46C23.31 16.8 23.23 17.13 23.09 17.44C22.97 17.71 23.08 18.03 23.34 18.2L24.01 18.61L23.77 18.93L23.11 18.51C22.84 18.34 22.48 18.36 22.24 18.56C21.97 18.79 21.66 18.98 21.31 19.11C21.02 19.23 20.85 19.52 20.91 19.81L21.05 20.53L20.64 20.6L20.49 19.88C20.43 19.59 20.16 19.37 19.84 19.36C19.47 19.34 19.1 19.27 18.76 19.15C18.67 19.12 18.59 19.1 18.5 19.1C18.28 19.1 18.06 19.2 17.93 19.38L17.47 19.98L17.13 19.77L17.58 19.16C17.77 18.92 17.74 18.59 17.52 18.37C17.27 18.13 17.07 17.84 16.92 17.53C16.79 17.26 16.47 17.11 16.16 17.16L15.36 17.29L15.29 16.92L16.08 16.79C16.4 16.73 16.64 16.49 16.65 16.19C16.67 15.85 16.74 15.52 16.88 15.21C17 14.93 16.89 14.62 16.63 14.45L15.96 14.04L16.2 13.72L16.86 14.14C17.13 14.31 17.49 14.28 17.73 14.08C18 13.86 18.32 13.67 18.66 13.54C18.96 13.42 19.13 13.13 19.07 12.84L18.92 12.12L19.33 12.05L19.48 12.77C19.54 13.06 19.81 13.28 20.13 13.29C20.5 13.31 20.87 13.38 21.21 13.5C21.52 13.61 21.86 13.51 22.04 13.27L22.5 12.67L22.85 12.88L22.39 13.49C22.2 13.73 22.23 14.06 22.45 14.27C22.7 14.52 22.9 14.81 23.05 15.12C23.18 15.39 23.5 15.54 23.82 15.49L24.61 15.36L24.69 15.73L23.89 15.86Z" fill="#FFFFFF" fill-opacity="0.870000"/>
            <path id="Vector" d="M21.38 14.49C20.84 14.15 20.19 14.02 19.54 14.13C18.9 14.24 18.34 14.57 17.96 15.06C17.2 16.07 17.48 17.46 18.59 18.16C19.02 18.43 19.5 18.56 19.98 18.56C20.76 18.56 21.53 18.22 22.01 17.59C22.78 16.58 22.49 15.18 21.38 14.49ZM20.86 16.87C20.53 17.31 19.87 17.42 19.38 17.12C18.9 16.82 18.78 16.22 19.11 15.78C19.11 15.78 19.11 15.78 19.11 15.78C19.27 15.57 19.51 15.42 19.79 15.38C19.86 15.37 19.92 15.36 19.99 15.36C20.2 15.36 20.41 15.42 20.59 15.53C21.07 15.83 21.19 16.43 20.86 16.87Z" fill="#FFFFFF" fill-opacity="0.870000"/>
        </g>
    </g>

    <g id="polygon">
        <defs>
            <linearGradient id="paint_linear_1_4699_0" x1="63.642883" y1="74.000107" x2="-0.260231" y2="-0.999851" gradientUnits="userSpaceOnUse">
                <stop stop-color="#0D54BE"/>
                <stop offset="1.000000" stop-color="#20ECD3"/>
            </linearGradient>
        </defs>
        <path id="Polygon 1" d="M1.02 16.59C-0.22 17.3 -0.98 18.63 -0.98 20.05L-0.98 52.94C-0.98 54.36 -0.22 55.69 1.02 56.4L29.5 72.84C30.73 73.55 32.26 73.55 33.5 72.84L61.97 56.4C63.21 55.69 63.97 54.36 63.97 52.94L63.97 20.05C63.97 18.63 63.21 17.3 61.97 16.59L33.5 0.15C32.26 -0.56 30.73 -0.56 29.5 0.15L1.02 16.59ZM2.02 18.32C1.4 18.68 1.02 19.34 1.02 20.05L1.02 52.94C1.02 53.65 1.4 54.31 2.02 54.67L30.5 71.11C31.11 71.47 31.88 71.47 32.5 71.11L60.97 54.67C61.59 54.31 61.97 53.65 61.97 52.94L61.97 20.05C61.97 19.34 61.59 18.68 60.97 18.32L32.5 1.88C31.88 1.52 31.11 1.52 30.5 1.88L2.02 18.32Z" fill="url(#paint_linear_1_4699_0)" fill-opacity="1.000000" fill-rule="evenodd"/>
    </g>

</svg>