<svg width="64.000000" height="74.000000" viewBox="0 0 64 74" fill="none" xmlns="http://www.w3.org/2000/svg" xmlns:xlink="http://www.w3.org/1999/xlink">
	<desc>
			Created with Pixso.
	</desc>
	<defs>
		<linearGradient id="paint_linear_1_4699_0" x1="63.642883" y1="74.000107" x2="-0.260231" y2="-0.999851" gradientUnits="userSpaceOnUse">
			<stop stop-color="#0D54BE"/>
			<stop offset="1.000000" stop-color="#20ECD3"/>
		</linearGradient>
	</defs>
	<path id="Polygon 1" d="M1.02 16.59C-0.22 17.3 -0.98 18.63 -0.98 20.05L-0.98 52.94C-0.98 54.36 -0.22 55.69 1.02 56.4L29.5 72.84C30.73 73.55 32.26 73.55 33.5 72.84L61.97 56.4C63.21 55.69 63.97 54.36 63.97 52.94L63.97 20.05C63.97 18.63 63.21 17.3 61.97 16.59L33.5 0.15C32.26 -0.56 30.73 -0.56 29.5 0.15L1.02 16.59ZM2.02 18.32C1.4 18.68 1.02 19.34 1.02 20.05L1.02 52.94C1.02 53.65 1.4 54.31 2.02 54.67L30.5 71.11C31.11 71.47 31.88 71.47 32.5 71.11L60.97 54.67C61.59 54.31 61.97 53.65 61.97 52.94L61.97 20.05C61.97 19.34 61.59 18.68 60.97 18.32L32.5 1.88C31.88 1.52 31.11 1.52 30.5 1.88L2.02 18.32Z" fill="url(#paint_linear_1_4699_0)" fill-opacity="1.000000" fill-rule="evenodd"/>
</svg>
